<svg width="264" height="129" viewBox="0 0 264 129" fill="none" xmlns="http://www.w3.org/2000/svg">
<path d="M48.9116 15.0804C48.9116 15.0804 56.9697 14.5849 59.9812 14.5849C59.9812 14.5849 42.2433 10.8685 34.9463 1.37109C37.7261 11.8431 48.9116 15.0804 48.9116 15.0804Z" fill="white"/>
<path d="M82.2859 25.0068L86.3564 24.2305C85.9096 23.1899 83.047 17.1776 77.7356 17.9209C80.3334 19.3744 81.9219 23.9001 82.2859 25.0068Z" fill="white"/>
<path d="M97.3267 23.4711C88.3916 24.6933 73.3673 28.9878 69.876 27.8812C66.3847 26.791 66.302 23.2729 69.148 22.5131C71.9112 21.7533 74.145 23.6858 75.9155 26.2129L79.6054 25.5192C80.1514 25.3871 80.532 25.3045 80.532 25.3045C74.7572 9.31575 52.3532 19.4408 37.0477 16.253C30.76 14.9481 17.4731 6.97029 13.9653 0C13.9653 0 13.9653 18.3507 38.4211 27.8977C38.4211 27.8977 38.1232 27.9142 37.6268 27.9803H37.6103C37.4117 27.9968 37.1801 28.0298 36.9319 28.0629C30.9586 27.6169 24.3896 30.4248 19.0451 35.5122C16.3645 37.742 13.9984 40.6325 12.3768 44.3654C11.6984 45.6538 11.0862 46.9917 10.5567 48.3956C14.4286 45.2739 18.5156 43.8369 21.7918 43.1927C15.0739 48.214 11.566 59.3631 14.4948 70.3471C16.017 64.8964 19.2602 61.2791 21.5767 59.264C18.3667 67.2419 22.0731 78.9691 31.306 86.3359C29.8003 82.4213 29.6845 78.7544 29.9989 75.93C33.7053 80.2245 39.5131 84.585 48.5144 88.3179C62.7445 94.2311 62.2812 108.998 52.3863 116.827C38.1894 114.002 6.98264 102.077 6.98264 76.7558C6.98264 66.2839 6.98264 26.1469 6.98264 26.1469C6.98264 26.1469 15.8019 23.8344 22.7846 22.9921C22.7846 22.9921 20.1868 20.9604 17.4731 17.4588C8.42219 19.2757 5.79129 19.6391 0 20.9439V76.7393C0 90.6469 2.56471 109.427 52.3532 129C52.3532 129 52.3532 129 52.3698 129C62.6452 124.97 70.9019 120.956 77.5536 117.025C78.7615 111.442 78.4802 106.817 77.2061 102.919C71.8947 86.6497 50.318 84.2712 45.4368 76.7063C51.5259 81.7936 57.2179 82.4047 68.089 87.9215C72.3911 90.1018 77.4709 94.4624 80.4823 100.788C82.2032 104.406 83.2456 108.667 83.0636 113.523C91.1052 108.056 96.1685 102.754 99.3619 97.6997C104.227 89.9862 104.806 82.8672 104.806 76.7063V42.3338C103.879 46.8265 101.248 50.8732 98.0051 52.4919L97.8231 52.591V73.2211C97.8231 76.5081 97.3267 79.5803 96.3008 82.4873C90.0959 71.4042 67.7912 66.3995 57.797 64.4835C39.3477 60.9488 45.4202 45.3069 45.4202 45.3069C43.898 59.5779 56.8704 61.1965 68.7509 54.0611C78.6953 48.0983 89.7484 47.3716 95.6059 52.2772C97.4591 51.3522 99.6101 47.8506 99.7922 43.969C99.9245 41.4419 98.3195 39.2946 95.821 38.6504C92.3131 37.742 86.042 38.8982 81.8392 40.3022C79.1421 41.2106 74.2112 42.3173 68.6681 41.4749C67.9401 41.3593 67.9732 40.3187 68.7178 40.3022C76.7428 40.2526 81.1277 38.6174 85.1981 36.751C93.0081 33.1667 99.3454 35.314 103.499 37.5438C104.276 37.9567 105.236 37.7255 105.716 36.9822C113.592 24.9576 105.947 22.2983 97.3267 23.4711ZM104.524 29.7807C104.293 30.2927 103.796 30.5405 103.565 29.6816C103.416 29.12 103.333 28.6905 103.002 28.2941C102.754 27.9968 102.291 27.716 101.86 27.5673C101.265 27.3526 101.05 26.758 101.712 26.758C103.978 26.758 105.501 27.6334 104.524 29.7807Z" fill="white"/>
<path d="M126.101 116.43H124.678V109.427H126.101V116.43Z" fill="white"/>
<path d="M134.722 116.43H134.374L129.675 112.152V116.43H128.252V109.427H128.6L133.299 113.606V109.443H134.705V116.43H134.722Z" fill="white"/>
<path d="M136.195 109.427H142.184V110.666H139.901V116.43H138.495V110.666H136.195V109.427Z" fill="white"/>
<path d="M148.389 113.523H145.064V115.191H149.101V116.43H143.641V109.427H149.101V110.666H145.064V112.367H148.389V113.523Z" fill="white"/>
<path d="M150.822 109.427H153.999C155.786 109.427 156.878 110.302 156.878 111.838C156.878 112.879 156.365 113.589 155.554 113.969V114.068L157.225 116.281V116.414H155.62L154.065 114.283H152.245V116.414H150.822V109.427ZM153.949 110.666H152.245V113.11H153.982C154.876 113.11 155.405 112.714 155.405 111.888C155.405 111.078 154.859 110.666 153.949 110.666Z" fill="white"/>
<path d="M165.267 116.43H164.919L160.22 112.152V116.43H158.797V109.427H159.145L163.844 113.606V109.443H165.25V116.43H165.267Z" fill="white"/>
<path d="M170.082 109.427H170.33L173.954 116.43H172.349L171.885 115.472H168.526L168.08 116.43H166.475L170.082 109.427ZM170.231 111.97H170.131L169.072 114.266L168.99 114.415H171.372L171.29 114.266L170.231 111.97Z" fill="white"/>
<path d="M173.689 109.427H179.679V110.666H177.396V116.43H175.973V110.666H173.673V109.427H173.689Z" fill="white"/>
<path d="M182.558 116.43H181.135V109.427H182.558V116.43Z" fill="white"/>
<path d="M184.279 112.929C184.279 110.914 185.702 109.278 187.985 109.278C190.285 109.278 191.708 110.914 191.708 112.929C191.708 114.944 190.285 116.579 187.985 116.579C185.702 116.579 184.279 114.944 184.279 112.929ZM190.269 112.929C190.269 111.591 189.326 110.633 188.002 110.633C186.695 110.633 185.751 111.607 185.751 112.929C185.751 114.267 186.695 115.225 188.002 115.225C189.309 115.225 190.269 114.25 190.269 112.929Z" fill="white"/>
<path d="M199.899 116.43H199.551L194.852 112.152V116.43H193.429V109.427H193.777L198.476 113.606V109.443H199.882V116.43H199.899Z" fill="white"/>
<path d="M204.697 109.427H204.945L208.569 116.43H206.964L206.501 115.472H203.142L202.695 116.43H201.09L204.697 109.427ZM204.863 111.97H204.763L203.704 114.266L203.622 114.415H206.004L205.922 114.266L204.863 111.97Z" fill="white"/>
<path d="M209.76 116.43V109.427H211.184V115.191H214.923V116.43H209.76Z" fill="white"/>
<path d="M219.126 114.613C219.126 114.613 220.052 115.291 221.194 115.291C222.055 115.291 222.385 114.944 222.385 114.514C222.385 114.052 222.088 113.821 220.863 113.49C219.275 113.044 218.447 112.483 218.447 111.36C218.447 110.104 219.391 109.278 221.194 109.278C223.08 109.278 223.858 110.005 223.858 110.005L223.097 111.161C223.097 111.161 222.352 110.583 221.194 110.583C220.416 110.583 220.052 110.847 220.052 111.277C220.052 111.69 220.416 111.888 221.509 112.185C223.229 112.648 224.007 113.242 224.007 114.382C224.007 115.604 223.147 116.595 221.227 116.595C219.291 116.595 218.348 115.704 218.348 115.704L219.126 114.613Z" fill="white"/>
<path d="M231.47 115.72C231.47 115.72 230.692 116.579 228.988 116.579C226.688 116.579 225.248 114.944 225.248 112.929C225.248 110.914 226.688 109.278 228.988 109.278C230.692 109.278 231.47 110.137 231.47 110.137L230.659 111.227C230.659 111.227 229.931 110.633 229.004 110.633C227.664 110.633 226.704 111.607 226.704 112.929C226.704 114.267 227.647 115.241 229.004 115.241C230.063 115.241 230.659 114.63 230.659 114.63L231.47 115.72Z" fill="white"/>
<path d="M239.28 116.43H237.857V113.573H234.398V116.43H232.975V109.427H234.398V112.433H237.857V109.427H239.28V116.43Z" fill="white"/>
<path d="M240.984 112.929C240.984 110.914 242.407 109.278 244.69 109.278C246.99 109.278 248.413 110.914 248.413 112.929C248.413 114.944 246.99 116.579 244.69 116.579C242.39 116.579 240.984 114.944 240.984 112.929ZM246.957 112.929C246.957 111.591 246.014 110.633 244.69 110.633C243.383 110.633 242.44 111.607 242.44 112.929C242.44 114.267 243.383 115.225 244.69 115.225C246.014 115.225 246.957 114.25 246.957 112.929Z" fill="white"/>
<path d="M249.687 112.929C249.687 110.914 251.11 109.278 253.394 109.278C255.694 109.278 257.117 110.914 257.117 112.929C257.117 114.944 255.694 116.579 253.394 116.579C251.11 116.579 249.687 114.944 249.687 112.929ZM255.661 112.929C255.661 111.591 254.717 110.633 253.394 110.633C252.087 110.633 251.143 111.607 251.143 112.929C251.143 114.267 252.087 115.225 253.394 115.225C254.717 115.225 255.661 114.25 255.661 112.929Z" fill="white"/>
<path d="M258.838 116.43V109.427H260.261V115.191H264V116.43H258.838Z" fill="white"/>
<path d="M126.283 101.747C126.283 101.747 127.822 102.87 129.725 102.87C131.148 102.87 131.711 102.308 131.711 101.565C131.711 100.805 131.198 100.425 129.179 99.8472C126.532 99.1039 125.142 98.1789 125.142 96.3125C125.142 94.2313 126.697 92.8604 129.692 92.8604C132.819 92.8604 134.11 94.0661 134.11 94.0661L132.852 95.9821C132.852 95.9821 131.611 95.0076 129.692 95.0076C128.401 95.0076 127.789 95.4536 127.789 96.1803C127.789 96.874 128.385 97.1879 130.221 97.6999C133.084 98.4597 134.391 99.4673 134.391 101.35C134.391 103.398 132.968 105.017 129.775 105.017C126.565 105.017 124.993 103.514 124.993 103.514L126.283 101.747Z" fill="white"/>
<path d="M141.357 93.1074H141.771L147.794 104.769H145.113L144.352 103.183H138.759L138.015 104.769H135.351L141.357 93.1074ZM141.639 97.3689H141.473L139.703 101.184L139.57 101.432H143.541L143.409 101.184L141.639 97.3689Z" fill="white"/>
<path d="M152.129 104.769H149.779V93.1074H152.129V104.769Z" fill="white"/>
<path d="M160.865 98.0137H166.706V99.1534C166.706 102.606 164.804 105.017 161.163 105.017C157.325 105.017 154.991 102.292 154.991 98.9387C154.991 95.5857 157.341 92.8604 161.196 92.8604C164.258 92.8604 165.565 94.3304 165.565 94.3304L164.175 96.1143C164.175 96.1143 163 95.1067 161.163 95.1067C158.946 95.1067 157.424 96.7254 157.424 98.9387C157.424 101.152 158.93 102.787 161.147 102.787C163.033 102.787 164.158 101.598 164.224 100.078V99.9297H160.882V98.0137H160.865Z" fill="white"/>
<path d="M168.725 98.9387C168.725 95.5692 171.075 92.8604 174.897 92.8604C178.736 92.8604 181.085 95.5857 181.085 98.9387C181.085 102.292 178.736 105.017 174.897 105.017C171.075 105.017 168.725 102.308 168.725 98.9387ZM178.67 98.9387C178.67 96.7254 177.098 95.1067 174.897 95.1067C172.713 95.1067 171.157 96.7254 171.157 98.9387C171.157 101.152 172.713 102.771 174.897 102.771C177.098 102.771 178.67 101.152 178.67 98.9387Z" fill="white"/>
<path d="M194.687 104.769H194.124L186.298 97.6497V104.769H183.948V93.1074H184.527L192.354 100.061V93.1239H194.687V104.769Z" fill="white"/>
<path d="M202.877 101.747C202.877 101.747 204.416 102.87 206.319 102.87C207.742 102.87 208.305 102.308 208.305 101.565C208.305 100.805 207.792 100.425 205.773 99.8472C203.125 99.1039 201.736 98.1789 201.736 96.3125C201.736 94.2313 203.291 92.8604 206.286 92.8604C209.413 92.8604 210.704 94.0661 210.704 94.0661L209.446 95.9821C209.446 95.9821 208.205 95.0076 206.286 95.0076C204.995 95.0076 204.383 95.4536 204.383 96.1803C204.383 96.874 204.979 97.1879 206.815 97.6999C209.678 98.4597 210.985 99.4673 210.985 101.35C210.985 103.398 209.562 105.017 206.369 105.017C203.159 105.017 201.587 103.514 201.587 103.514L202.877 101.747Z" fill="white"/>
<path d="M213.07 98.9387C213.07 95.5692 215.419 92.8604 219.242 92.8604C223.08 92.8604 225.43 95.5857 225.43 98.9387C225.43 102.292 223.08 105.017 219.242 105.017C215.419 105.017 213.07 102.308 213.07 98.9387ZM223.014 98.9387C223.014 96.7254 221.442 95.1067 219.242 95.1067C217.058 95.1067 215.502 96.7254 215.502 98.9387C215.502 101.152 217.058 102.771 219.242 102.771C221.426 102.771 223.014 101.152 223.014 98.9387Z" fill="white"/>
<path d="M228.111 99.7969V93.1074H230.46V99.7969C230.46 101.416 231.42 102.77 233.339 102.77C235.292 102.77 236.185 101.432 236.185 99.7969V93.1074H238.535V99.7969C238.535 102.803 236.616 105.016 233.339 105.016C230.113 105.016 228.111 102.803 228.111 99.7969Z" fill="white"/>
<path d="M240.818 93.1074H250.779V95.1721H246.99V104.769H244.641V95.1721H240.818V93.1074Z" fill="white"/>
<path d="M263.686 104.769H261.336V100.028H255.578V104.769H253.228V93.1074H255.578V98.1287H261.336V93.1074H263.686V104.769Z" fill="white"/>
<path d="M208.553 31.2842C208.553 37.8581 213.881 43.1766 220.466 43.1766V31.2842H208.553Z" fill="#FDC807"/>
<path d="M148.241 50.857C140.53 48.7263 139.289 47.6526 139.289 45.9018C139.289 43.0113 142.83 42.4001 145.792 42.4001C152.973 42.4001 157.755 46.0339 157.804 46.0835L158.847 46.8928L165.267 37.1476L164.522 36.4539C164.291 36.2392 158.814 31.251 145.792 31.251C133.481 31.251 126.134 36.9494 126.134 46.4799C126.134 55.8783 134.408 59.479 143.343 61.9731C152.046 64.4012 152.692 65.8217 152.692 67.7211C152.692 71.0742 148.985 71.7679 145.874 71.7679C138.693 71.7679 132.753 67.5229 132.654 67.4404L131.661 66.7136L125.125 75.8146L125.903 76.5414C126.184 76.8057 132.786 82.9336 146.123 82.9336C152.576 82.9336 157.606 81.3644 161.114 78.2922C164.324 75.4678 166.011 71.5201 166.011 66.8457C166.011 58.8183 160.849 54.1935 148.241 50.857Z" fill="white"/>
<path d="M188.118 50.857C180.407 48.7263 179.166 47.6526 179.166 45.9018C179.166 43.0113 182.707 42.4001 185.669 42.4001C192.85 42.4001 197.632 46.0339 197.682 46.0835L198.724 46.8928L205.144 37.1476L204.4 36.4539C204.168 36.2392 198.691 31.251 185.669 31.251C173.358 31.251 166.012 36.9494 166.012 46.4799C166.012 55.8783 174.285 59.479 183.22 61.9731C191.923 64.4012 192.569 65.8217 192.569 67.7211C192.569 71.0742 188.862 71.7679 185.752 71.7679C178.57 71.7679 172.63 67.5229 172.531 67.4404L171.538 66.7136L165.002 75.8146L165.78 76.5414C166.061 76.8057 172.663 82.9336 186 82.9336C192.453 82.9336 197.483 81.3644 200.991 78.2922C204.201 75.4678 205.889 71.5201 205.889 66.8457C205.889 58.8183 200.726 54.1935 188.118 50.857Z" fill="white"/>
<path d="M245.815 50.857C238.105 48.7263 236.864 47.6526 236.864 45.9018C236.864 43.0113 240.405 42.4001 243.367 42.4001C250.548 42.4001 255.33 46.0339 255.379 46.0835L256.422 46.8928L262.842 37.1476L262.097 36.4539C261.866 36.2392 256.389 31.251 243.367 31.251C231.056 31.251 223.709 36.9494 223.709 46.4799C223.709 55.8783 231.983 59.479 240.918 61.9731C249.621 64.4012 250.266 65.8217 250.266 67.7211C250.266 71.0742 246.56 71.7679 243.449 71.7679C236.268 71.7679 230.328 67.5229 230.229 67.4404L229.236 66.7136L222.7 75.8146L223.478 76.5414C223.759 76.8057 230.361 82.9336 243.698 82.9336C250.151 82.9336 255.181 81.3644 258.689 78.2922C261.899 75.4678 263.586 71.5201 263.586 66.8457C263.57 58.8183 258.424 54.1935 245.815 50.857Z" fill="white"/>
<path d="M208.486 42.9785V81.8767H220.466V43.0446L208.486 42.9785Z" fill="white"/>
</svg>
