<?xml version="1.0" encoding="utf-8"?>
<!-- Generator: Adobe Illustrator 25.4.1, SVG Export Plug-In . SVG Version: 6.00 Build 0)  -->
<svg version="1.1" id="Layer_1" xmlns="http://www.w3.org/2000/svg" xmlns:xlink="http://www.w3.org/1999/xlink" x="0px" y="0px"
	 viewBox="0 0 170.8 275.9" style="enable-background:new 0 0 170.8 275.9;" xml:space="preserve">
<style type="text/css">
	.st0{fill:#FFFFFF;}
	.st1{fill:#FDC807;}
</style>
<g>
	<path class="st0" d="M1.7,275.8H0v-8.5h1.7V275.8z"/>
	<path class="st0" d="M12.3,275.7h-0.4l-5.8-5.2v5.2H4.4v-8.5h0.4l5.8,5.1v-5.1h1.7L12.3,275.7L12.3,275.7z"/>
	<path class="st0" d="M14.1,267.2h7.3v1.5h-2.8v7h-1.7v-7h-2.8V267.2z"/>
	<path class="st0" d="M29.1,272.2H25v2h5v1.5h-6.7v-8.5h6.7v1.5h-5v2.1h4.1V272.2z"/>
	<path class="st0" d="M32.1,267.2H36c2.2,0,3.5,1.1,3.5,2.9c0,1.3-0.6,2.1-1.6,2.6v0.1l2.1,2.7v0.2h-2l-1.9-2.6h-2.2v2.6H32
		L32.1,267.2L32.1,267.2z M35.9,268.7h-2.1v3h2.1c1.1,0,1.7-0.5,1.7-1.5C37.7,269.2,37,268.7,35.9,268.7z"/>
	<path class="st0" d="M49.8,275.7h-0.4l-5.8-5.2v5.2h-1.7v-8.5h0.4l5.8,5.1v-5.1h1.7V275.7L49.8,275.7z"/>
	<path class="st0" d="M55.7,267.2H56l4.4,8.5h-2l-0.6-1.2h-4.1l-0.5,1.2h-2L55.7,267.2z M55.9,270.3h-0.1l-1.3,2.8l-0.1,0.2h2.9
		l-0.1-0.2L55.9,270.3z"/>
	<path class="st0" d="M60.1,267.2h7.3v1.5h-2.8v7h-1.7v-7h-2.8V267.2L60.1,267.2z"/>
	<path class="st0" d="M71,275.7h-1.7v-8.5H71V275.7z"/>
	<path class="st0" d="M73.1,271.5c0-2.5,1.7-4.5,4.6-4.5c2.8,0,4.6,2,4.6,4.5c0,2.5-1.7,4.5-4.6,4.5
		C74.8,275.9,73.1,273.9,73.1,271.5z M80.4,271.5c0-1.6-1.2-2.8-2.8-2.8c-1.6,0-2.8,1.2-2.8,2.8c0,1.6,1.2,2.8,2.8,2.8
		C79.2,274.3,80.4,273.1,80.4,271.5z"/>
	<path class="st0" d="M92.2,275.7h-0.4l-5.8-5.2v5.2h-1.7v-8.5h0.4l5.8,5.1v-5.1h1.7L92.2,275.7L92.2,275.7z"/>
	<path class="st0" d="M98.1,267.2h0.3l4.4,8.5h-2l-0.6-1.2h-4.1l-0.5,1.2h-2L98.1,267.2z M98.3,270.3h-0.1l-1.3,2.8l-0.1,0.2h2.9
		l-0.1-0.2L98.3,270.3z"/>
	<path class="st0" d="M104.3,275.7v-8.5h1.7v7h4.6v1.5L104.3,275.7L104.3,275.7z"/>
	<path class="st0" d="M115.8,273.5c0,0,1.1,0.8,2.5,0.8c1,0,1.5-0.4,1.5-1c0-0.6-0.4-0.8-1.9-1.2c-2-0.5-3-1.2-3-2.6
		c0-1.5,1.2-2.5,3.4-2.5c2.3,0,3.3,0.9,3.3,0.9l-0.9,1.4c0,0-0.9-0.7-2.3-0.7c-0.9,0-1.4,0.3-1.4,0.8c0,0.5,0.4,0.8,1.8,1.1
		c2.1,0.6,3.1,1.3,3.1,2.7c0,1.5-1,2.7-3.4,2.7c-2.4,0-3.5-1.1-3.5-1.1L115.8,273.5z"/>
	<path class="st0" d="M130.9,274.9c0,0-1,1.1-3,1.1c-2.8,0-4.6-2-4.6-4.5c0-2.5,1.8-4.4,4.6-4.4c2.1,0,3,1.1,3,1.1l-1,1.3
		c0,0-0.9-0.7-2-0.7c-1.7,0-2.8,1.2-2.8,2.8c0,1.6,1.2,2.8,2.8,2.8c1.3,0,2-0.7,2-0.7L130.9,274.9z"/>
	<path class="st0" d="M140.5,275.7h-1.7v-3.5h-4.2v3.5h-1.7v-8.5h1.7v3.7h4.2v-3.7h1.7V275.7z"/>
	<path class="st0" d="M142.6,271.5c0-2.5,1.7-4.5,4.6-4.5c2.8,0,4.6,2,4.6,4.5c0,2.5-1.7,4.5-4.6,4.5
		C144.3,275.9,142.6,273.9,142.6,271.5z M149.9,271.5c0-1.6-1.2-2.8-2.8-2.8c-1.6,0-2.8,1.2-2.8,2.8c0,1.6,1.2,2.8,2.8,2.8
		C148.8,274.3,149.9,273.1,149.9,271.5z"/>
	<path class="st0" d="M153.3,271.5c0-2.5,1.7-4.5,4.6-4.5c2.8,0,4.6,2,4.6,4.5c0,2.5-1.7,4.5-4.6,4.5
		C155,275.9,153.3,273.9,153.3,271.5z M160.6,271.5c0-1.6-1.2-2.8-2.8-2.8c-1.6,0-2.8,1.2-2.8,2.8c0,1.6,1.2,2.8,2.8,2.8
		C159.4,274.3,160.6,273.1,160.6,271.5z"/>
	<path class="st0" d="M164.5,275.7v-8.5h1.7v7h4.6v1.5L164.5,275.7L164.5,275.7z"/>
	<path class="st0" d="M2,257.9c0,0,1.9,1.4,4.2,1.4c1.7,0,2.4-0.7,2.4-1.6c0-0.9-0.6-1.4-3.1-2.1c-3.2-0.9-4.9-2-4.9-4.3
		c0-2.5,1.9-4.2,5.6-4.2c3.8,0,5.4,1.5,5.4,1.5l-1.6,2.3c0,0-1.5-1.2-3.9-1.2c-1.6,0-2.3,0.5-2.3,1.4c0,0.8,0.7,1.2,3,1.9
		c3.5,0.9,5.1,2.2,5.1,4.4c0,2.5-1.7,4.5-5.7,4.5c-3.9,0-5.9-1.8-5.9-1.8L2,257.9z"/>
	<path class="st0" d="M20.4,247.3h0.5l7.4,14.2h-3.3l-0.9-1.9h-6.8l-0.9,1.9h-3.3L20.4,247.3z M20.8,252.5h-0.2l-2.2,4.6l-0.2,0.3
		h4.9l-0.2-0.3L20.8,252.5z"/>
	<path class="st0" d="M33.6,261.5h-2.9v-14.2h2.9V261.5z"/>
	<path class="st0" d="M44.4,253.3h7.2v1.4c0,4.2-2.3,7.1-6.8,7.1c-4.7,0-7.6-3.3-7.6-7.4c0-4.1,2.9-7.4,7.6-7.4
		c3.8,0,5.3,1.8,5.3,1.8l-1.7,2.2c0,0-1.4-1.2-3.7-1.2c-2.7,0-4.6,2-4.6,4.7c0,2.7,1.8,4.7,4.6,4.7c2.3,0,3.7-1.5,3.8-3.3v-0.2h-4.1
		L44.4,253.3L44.4,253.3z"/>
	<path class="st0" d="M54,254.4c0-4.1,2.9-7.4,7.6-7.4c4.7,0,7.6,3.3,7.6,7.4c0,4.1-2.9,7.4-7.6,7.4C56.9,261.8,54,258.5,54,254.4z
		 M66.2,254.4c0-2.7-1.9-4.7-4.6-4.7c-2.7,0-4.6,2-4.6,4.7c0,2.7,1.9,4.7,4.6,4.7C64.3,259.1,66.2,257.1,66.2,254.4z"/>
	<path class="st0" d="M85.8,261.5h-0.7l-9.6-8.7v8.7h-2.9v-14.2h0.7l9.6,8.5v-8.5h2.9V261.5L85.8,261.5z"/>
	<path class="st0" d="M95.9,257.9c0,0,1.9,1.4,4.2,1.4c1.7,0,2.4-0.7,2.4-1.6c0-0.9-0.6-1.4-3.1-2.1c-3.2-0.9-4.9-2-4.9-4.3
		c0-2.5,1.9-4.2,5.6-4.2c3.8,0,5.4,1.5,5.4,1.5l-1.6,2.3c0,0-1.5-1.2-3.9-1.2c-1.6,0-2.3,0.5-2.3,1.4c0,0.8,0.7,1.2,3,1.9
		c3.5,0.9,5.1,2.2,5.1,4.4c0,2.5-1.7,4.5-5.7,4.5c-3.9,0-5.9-1.8-5.9-1.8L95.9,257.9z"/>
	<path class="st0" d="M108.4,254.4c0-4.1,2.9-7.4,7.6-7.4c4.7,0,7.6,3.3,7.6,7.4c0,4.1-2.9,7.4-7.6,7.4
		C111.3,261.8,108.4,258.5,108.4,254.4z M120.6,254.4c0-2.7-1.9-4.7-4.6-4.7c-2.7,0-4.6,2-4.6,4.7c0,2.7,1.9,4.7,4.6,4.7
		C118.6,259.1,120.6,257.1,120.6,254.4z"/>
	<path class="st0" d="M126.8,255.5v-8.2h2.9v8.2c0,2,1.2,3.6,3.5,3.6c2.4,0,3.5-1.6,3.5-3.6v-8.2h2.9v8.2c0,3.7-2.4,6.4-6.4,6.4
		C129.3,261.8,126.8,259.1,126.8,255.5z"/>
	<path class="st0" d="M142.4,247.3h12.2v2.5H150v11.7h-2.9v-11.7h-4.7L142.4,247.3L142.4,247.3z"/>
	<path class="st0" d="M170.4,261.5h-2.9v-5.8h-7.1v5.8h-2.9v-14.2h2.9v6.1h7.1v-6.1h2.9V261.5z"/>
	<path class="st1" d="M102.8,172c0,8,6.5,14.5,14.6,14.5V172H102.8z"/>
	<path class="st0" d="M28.9,195.8c-9.4-2.6-11-3.9-11-6c0-3.5,4.3-4.3,8-4.3c8.8,0,14.7,4.4,14.7,4.5l1.3,1l7.9-11.9l-0.9-0.8
		c-0.3-0.3-7-6.3-23-6.3c-15.1,0-24.1,6.9-24.1,18.6c0,11.5,10.1,15.8,21.1,18.9c10.7,3,11.5,4.7,11.5,7c0,4.1-4.6,4.9-8.4,4.9
		c-8.8,0-16.1-5.2-16.2-5.3l-1.2-0.9l-8,11.1l0.9,0.9c0.3,0.3,8.5,7.8,24.8,7.8c7.9,0,14.1-1.9,18.4-5.6c3.9-3.4,6-8.3,6-13.9
		C50.7,205.6,44.3,199.9,28.9,195.8z"/>
	<path class="st0" d="M77.8,195.8c-9.4-2.6-11-3.9-11-6c0-3.5,4.3-4.3,8-4.3c8.8,0,14.7,4.4,14.7,4.5l1.3,1l7.9-11.9l-0.9-0.8
		c-0.3-0.3-7-6.3-23-6.3c-15.1,0-24.1,6.9-24.1,18.6c0,11.5,10.1,15.8,21.1,18.9c10.7,3,11.5,4.7,11.5,7c0,4.1-4.6,4.9-8.4,4.9
		c-8.8,0-16.1-5.2-16.2-5.3l-1.2-0.9l-8,11.1l0.9,0.9c0.3,0.3,8.5,7.8,24.8,7.8c7.9,0,14.1-1.9,18.4-5.6c3.9-3.4,6-8.3,6-13.9
		C99.6,205.6,93.2,199.9,77.8,195.8z"/>
	<path class="st0" d="M148.5,195.8c-9.4-2.6-11-3.9-11-6c0-3.5,4.3-4.3,8-4.3c8.8,0,14.7,4.4,14.7,4.5l1.3,1l7.9-11.9l-0.9-0.8
		c-0.3-0.3-7-6.3-23-6.3c-15.1,0-24.1,6.9-24.1,18.6c0,11.5,10.1,15.8,21.1,18.9c10.7,3,11.5,4.7,11.5,7c0,4.1-4.6,4.9-8.4,4.9
		c-8.8,0-16.1-5.2-16.2-5.3l-1.2-0.9l-8,11.1l0.9,0.9c0.3,0.3,8.5,7.8,24.8,7.8c7.9,0,14.1-1.9,18.4-5.6c3.9-3.4,6-8.3,6-13.9
		C170.3,205.6,164,199.9,148.5,195.8z"/>
	<path class="st0" d="M102.8,186.3v47.4h14.7v-47.3L102.8,186.3z"/>
</g>
<path class="st0" d="M78.7,18.1c0,0,9.7-0.6,13.4-0.6c0,0-21.4-4.5-30.2-15.9C65.1,14.2,78.7,18.1,78.7,18.1z"/>
<path class="st0" d="M119,30l4.9-0.9c-0.5-1.2-4-8.5-10.4-7.6C116.6,23.3,118.5,28.7,119,30z"/>
<path class="st0" d="M137.1,28.2c-10.8,1.5-28.9,6.6-33.2,5.3c-4.2-1.3-4.3-5.5-0.9-6.4c3.3-0.9,6,1.4,8.2,4.5l4.5-0.8
	c0.7-0.1,1.1-0.3,1.1-0.3c-7-19.2-34-7.1-52.5-10.9C56.7,17.9,40.7,8.4,36.4,0c0,0,0,22,29.5,33.5c0,0-0.4,0-1,0.1h0
	c-0.2,0-0.5,0.1-0.8,0.1C57,33.1,49,36.5,42.5,42.6c-3.2,2.7-6.1,6.2-8.1,10.6c-0.8,1.5-1.6,3.2-2.2,4.8c4.7-3.7,9.6-5.5,13.6-6.3
	c-8.1,6-12.3,19.4-8.8,32.6c1.8-6.6,5.8-10.9,8.6-13.3c-3.9,9.6,0.6,23.7,11.8,32.5c-1.8-4.7-2-9.1-1.6-12.5
	c4.5,5.2,11.5,10.4,22.4,14.9c17.2,7.1,16.6,24.8,4.7,34.2C65.7,136.8,28,122.5,28,92.1c0-12.6,0-60.8,0-60.8s10.6-2.8,19.1-3.8
	c0,0-3.1-2.5-6.4-6.6c-10.9,2.2-14.1,2.6-21.1,4.2v67c0,16.7,3.1,39.3,63.2,62.8c0,0,0,0,0,0c12.4-4.8,22.4-9.6,30.4-14.4
	c1.5-6.7,1.1-12.2-0.4-16.9c-6.4-19.5-32.5-22.4-38.4-31.5c7.4,6.1,14.2,6.8,27.4,13.5c5.2,2.6,11.3,7.9,15,15.5
	c2.1,4.4,3.4,9.5,3.1,15.3c9.7-6.6,15.8-12.9,19.7-19c5.9-9.3,6.6-17.8,6.6-25.2V50.8c-1.1,5.4-4.3,10.3-8.2,12.2l-0.2,0.1v24.8
	c0,3.9-0.6,7.6-1.8,11.1c-7.5-13.3-34.5-19.3-46.5-21.6c-22.3-4.2-14.9-23-14.9-23c-1.8,17.1,13.8,19.1,28.2,10.5
	c12-7.1,25.4-8,32.4-2.1c2.2-1.1,4.8-5.3,5.1-10c0.1-3-1.8-5.6-4.8-6.4c-4.2-1.1-11.8,0.3-16.9,2c-3.3,1.1-9.2,2.4-15.9,1.4
	c-0.9-0.1-0.8-1.4,0.1-1.4c9.7,0,15-2,19.9-4.3c9.4-4.3,17.1-1.7,22.1,1c0.9,0.5,2.1,0.2,2.7-0.7C156.8,30,147.6,26.8,137.1,28.2z
	 M145.8,35.7c-0.3,0.6-0.9,0.9-1.2-0.1c-0.2-0.7-0.3-1.2-0.7-1.7c-0.3-0.4-0.8-0.7-1.4-0.9c-0.7-0.3-1-1-0.2-1
	C145.2,32.1,147,33.2,145.8,35.7z"/>
</svg>
